<svg xmlns="http://www.w3.org/2000/svg" viewBox="0 0 1400 800">
  <defs>
    <linearGradient id="bg" x1="0" y1="0" x2="1" y2="1">
      <stop offset="0" stop-color="#f5f5f3"/>
      <stop offset="1" stop-color="#e8e8e8"/>
    </linearGradient>
    <pattern id="micro" width="18" height="18" patternUnits="userSpaceOnUse">
      <circle cx="2" cy="2" r="1" fill="#9b9b97" opacity="0.35"/>
    </pattern>
  </defs>

  <rect width="1400" height="800" fill="url(#bg)"/>
  <rect width="1400" height="800" fill="url(#micro)"/>

  <!-- abstract "coverage" map motif -->
  <g opacity="0.95">
    <path d="M230 560C320 450 390 420 520 420C660 420 720 330 840 320C990 310 1080 370 1150 470C1070 600 930 660 760 650C560 640 430 700 300 650C260 630 240 600 230 560Z" fill="#ffffff" opacity="0.7"/>
    <path d="M230 560C320 450 390 420 520 420C660 420 720 330 840 320C990 310 1080 370 1150 470" fill="none" stroke="#c17a5c" stroke-width="6" opacity="0.75"/>

    <g fill="#c17a5c" opacity="0.9">
      <circle cx="420" cy="470" r="9"/>
      <circle cx="560" cy="500" r="9"/>
      <circle cx="720" cy="430" r="9"/>
      <circle cx="880" cy="390" r="9"/>
      <circle cx="1000" cy="430" r="9"/>
    </g>

    <g stroke="#1a1a1a" stroke-opacity="0.25" stroke-width="5" stroke-linecap="round">
      <path d="M420 470L560 500"/>
      <path d="M560 500L720 430"/>
      <path d="M720 430L880 390"/>
      <path d="M880 390L1000 430"/>
    </g>
  </g>

  <g font-family="Segoe UI, Tahoma, sans-serif">
    <text x="90" y="95" fill="#1a1a1a" font-size="26" font-weight="700" letter-spacing="0.8">Coverage / Map Placeholder</text>
    <text x="90" y="130" fill="#4a4a4a" font-size="16">Swap for service area map or location photography (city/house exterior)</text>
  </g>
</svg>
